<?xml version="1.0" encoding="UTF-8"?>
<svg version="1.1" xmlns="http://www.w3.org/2000/svg" width="1024" height="1024">
<path d="M0 0 C337.92 0 675.84 0 1024 0 C1024 337.92 1024 675.84 1024 1024 C686.08 1024 348.16 1024 0 1024 C0 686.08 0 348.16 0 0 Z " fill="#FAFAFA" transform="translate(0,0)"/>
<path d="M0 0 C0.78486786 -0.00997513 1.56973572 -0.01995026 2.37838745 -0.03022766 C3.23040741 -0.03089233 4.08242737 -0.03155701 4.96026611 -0.03224182 C6.31712021 -0.0447271 6.31712021 -0.0447271 7.7013855 -0.0574646 C10.69299625 -0.08156674 13.68438886 -0.09033777 16.67608643 -0.09693909 C18.75870834 -0.10590648 20.8413296 -0.11502834 22.9239502 -0.1242981 C27.29186569 -0.14079209 31.65970451 -0.14848875 36.02764893 -0.15138245 C41.61413395 -0.15676129 47.19989419 -0.19441941 52.78617477 -0.24012661 C57.08942264 -0.26992945 61.39249684 -0.27710674 65.69583893 -0.2781086 C67.75466475 -0.28230581 69.81349132 -0.29471997 71.87221527 -0.31562614 C74.75887144 -0.34260202 77.64385909 -0.33769608 80.53057861 -0.32521057 C81.79646317 -0.34746201 81.79646317 -0.34746201 83.08792114 -0.37016296 C89.90567716 -0.28655264 94.58819482 2.05069836 99.53312302 6.71688175 C104.67073911 12.42198204 105.30050449 18.3063421 105.24472046 25.7023468 C105.24728373 26.95347832 105.24728373 26.95347832 105.24989879 28.22988522 C105.25318548 31.01670256 105.24220353 33.80327758 105.23126221 36.59007263 C105.23069792 38.59093215 105.231015 40.59179209 105.23214722 42.59265137 C105.23272103 48.01984525 105.22096201 53.44695072 105.2069993 58.87412405 C105.19449677 64.54759364 105.19332182 70.22106526 105.19094849 75.89454651 C105.18473232 86.63602912 105.16831963 97.37747102 105.14824951 108.1189357 C105.12589478 120.34858254 105.11489814 132.57823133 105.10485864 144.80789351 C105.08395355 169.96333647 105.04877489 195.11874328 105.00421143 220.27415466 C106.04819847 220.27046749 107.09218552 220.26678032 108.16780853 220.26298141 C133.57337339 220.17417287 158.9789181 220.10844673 184.38460541 220.06690598 C196.67062396 220.04628309 208.95653995 220.01816755 221.24249268 219.97239685 C231.95125602 219.93252092 242.65994509 219.90671986 253.36878061 219.89780068 C259.03874818 219.89258727 264.70850326 219.8803392 270.37840271 219.85123444 C275.71683268 219.82405359 281.05496291 219.81571517 286.39345551 219.82172394 C288.35098144 219.82062491 290.30851756 219.81268706 292.26598358 219.79733276 C294.94353685 219.77736307 297.61996585 219.7822408 300.29754639 219.7931366 C301.06799711 219.78148523 301.83844783 219.76983387 302.63224554 219.75782943 C309.65970531 219.834863 314.84612917 222.11607241 319.81671143 227.08665466 C324.25385103 233.55220094 325.45053413 238.50700278 325.39239502 246.18772888 C325.39765198 247.05211578 325.40290894 247.91650269 325.4083252 248.80708313 C325.42146525 251.64785653 325.41280684 254.48806363 325.40264893 257.32884216 C325.40467175 259.31510017 325.40758493 261.30135744 325.41134644 263.28761292 C325.41576199 267.44514556 325.4093648 271.60248444 325.39532471 275.75999451 C325.37825572 281.07149675 325.3880645 286.3825434 325.4060421 291.69402885 C325.41691974 295.79486986 325.41341498 299.89560417 325.40565872 303.99644852 C325.40366655 305.95393554 325.40608121 307.91143246 325.41309738 309.86890793 C325.42077505 312.61346059 325.40901889 315.35729198 325.39239502 318.10179138 C325.39846771 318.90000305 325.40454041 319.69821472 325.41079712 320.52061462 C325.33449843 327.37105601 324.11372433 333.70853086 319.69171143 339.08665466 C312.45156001 344.97980117 308.03921762 346.42896032 298.85449219 346.39440918 C297.61204927 346.39569082 297.61204927 346.39569082 296.3445065 346.39699835 C293.5653628 346.3986472 290.78627927 346.39314146 288.00714111 346.38768005 C286.01642864 346.38739803 284.02571607 346.38755622 282.03500366 346.38812256 C276.62631303 346.38840993 271.2176445 346.38252285 265.80895901 346.3755486 C260.15816293 346.36930512 254.50736637 346.36871047 248.85656738 346.36752319 C238.15399038 346.36441282 227.45142357 346.35620337 216.74885106 346.3461737 C204.56519462 346.33500346 192.38153769 346.32949981 180.19787741 346.32447827 C155.13331643 346.31402053 130.0687645 346.29642676 105.00421143 346.27415466 C105.0069768 347.3036023 105.00974218 348.33304995 105.01259136 349.39369297 C105.07918405 374.44007804 105.12848589 399.48645164 105.15964794 424.53290653 C105.17511814 436.64517424 105.19621067 448.75738347 105.23052979 460.86961365 C105.26042736 471.4263799 105.27978531 481.9831038 105.28647691 492.53991121 C105.29038854 498.12988206 105.29958476 503.71973175 105.3214016 509.30966377 C105.34177229 514.57172454 105.34804399 519.8336143 105.34353447 525.09571075 C105.3443594 527.02623613 105.35032152 528.95676726 105.36182785 530.88725853 C105.37678105 533.52559364 105.37315473 536.16328535 105.36497498 538.80163574 C105.3737135 539.56332646 105.38245202 540.32501718 105.39145535 541.10978943 C105.33363271 548.02258624 103.2737714 553.660439 98.56501865 558.93328285 C92.8422607 563.84963939 85.97184754 564.86785829 78.69586182 564.82347107 C77.37199211 564.83880386 77.37199211 564.83880386 76.02137756 564.85444641 C73.13125775 564.8820324 70.24210272 564.8803414 67.35186768 564.87571716 C65.32602083 564.88350181 63.30017723 564.89217335 61.27433777 564.90168762 C57.03876132 564.91656718 52.80351844 564.91606204 48.56793213 564.90550232 C43.15980514 564.89391151 37.75304779 564.92779676 32.34514713 564.97419167 C28.16444518 565.00375819 23.98406978 565.00539761 19.80328178 564.99917221 C17.81031009 565.00019382 15.81731895 565.01057853 13.82444954 565.03079605 C-6.78439497 565.21425382 -6.78439497 565.21425382 -13.99578857 558.27415466 C-19.18722089 551.7565735 -20.14736138 546.44203046 -20.11604309 538.20036316 C-20.11732473 536.9701709 -20.11732473 536.9701709 -20.11863226 535.71512628 C-20.120281 532.96362142 -20.11477556 530.21217736 -20.10931396 527.4606781 C-20.10903194 525.48966981 -20.10919013 523.51866142 -20.10975647 521.5476532 C-20.11004383 516.19267977 -20.10415691 510.83772866 -20.09718251 505.48276043 C-20.09093887 499.8880188 -20.09034437 494.29327668 -20.0891571 488.6985321 C-20.08604678 478.10220296 -20.0778374 467.5058841 -20.06780761 456.90955949 C-20.05663723 444.84681974 -20.05113369 432.78407951 -20.04611218 420.72133589 C-20.03565455 395.9056031 -20.01806086 371.08987946 -19.99578857 346.27415466 C-21.02946815 346.27784184 -22.06314774 346.28152901 -23.12815094 346.28532791 C-48.28335941 346.37413807 -73.43854755 346.43986337 -98.5938797 346.48140335 C-110.75883049 346.50202588 -122.9236777 346.53014073 -135.08856201 346.57591248 C-145.69184994 346.61578951 -156.29506284 346.64158972 -166.89842367 346.65050864 C-172.51250082 346.65572187 -178.12636336 346.66796875 -183.7403717 346.69707489 C-189.0262728 346.72425749 -194.31187119 346.73259381 -199.59783554 346.72658539 C-201.53601095 346.72768434 -203.47419666 346.73562115 -205.41231155 346.75097656 C-208.06359398 346.77094905 -210.71374125 346.76606757 -213.36505127 346.75517273 C-214.12772009 346.7668241 -214.89038892 346.77847546 -215.67616892 346.7904799 C-222.04032725 346.72004188 -227.21791153 344.71954449 -232.01922607 340.49290466 C-232.4652417 339.92571716 -232.91125732 339.35852966 -233.37078857 338.77415466 C-233.83227295 338.20696716 -234.29375732 337.63977966 -234.76922607 337.05540466 C-237.02035537 333.78624874 -238.24312306 331.20403034 -238.26994324 327.20243835 C-238.27991837 326.40074219 -238.28989349 325.59904602 -238.3001709 324.77305603 C-238.30083557 323.90233459 -238.30150024 323.03161316 -238.30218506 322.13450623 C-238.31467033 320.74839142 -238.31467033 320.74839142 -238.32740784 319.33427429 C-238.35151275 316.27773325 -238.36028133 313.2214057 -238.36688232 310.16477966 C-238.37584945 308.03731726 -238.38497131 305.90985551 -238.39424133 303.78239441 C-238.41073605 299.32032235 -238.41843213 294.85832535 -238.42132568 290.39622498 C-238.4267048 284.68867824 -238.46436384 278.98184082 -238.51006985 273.27449417 C-238.53986914 268.87860056 -238.5470499 264.482877 -238.54805183 260.08689117 C-238.55224969 257.98340868 -238.56466646 255.87992548 -238.58556938 253.77654266 C-238.61253788 250.82763149 -238.60764135 247.88035429 -238.59515381 244.93138123 C-238.61740524 243.63744446 -238.61740524 243.63744446 -238.6401062 242.31736755 C-238.55759593 235.44710001 -236.29499624 230.68511267 -231.51766109 225.74596024 C-225.92447739 220.79618233 -220.98930226 219.97879164 -213.72581482 220.03364563 C-212.48209027 220.03108236 -212.48209027 220.03108236 -211.21323997 220.0284673 C-208.43713613 220.02517515 -205.66127442 220.03617159 -202.88519287 220.04710388 C-200.89433294 220.04766805 -198.9034726 220.04735132 -196.91261292 220.04621887 C-191.50808627 220.0456446 -186.10364825 220.05741107 -180.69914222 220.07136679 C-175.0510247 220.08386164 -169.4029052 220.08504366 -163.754776 220.0874176 C-153.05930078 220.09363603 -142.3638664 220.11005177 -131.66840917 220.13011658 C-119.49198888 220.15246429 -107.31556664 220.16346618 -95.13913095 220.17350745 C-70.09132751 220.19441766 -45.04356033 220.22960071 -19.99578857 220.27415466 C-20.00270202 218.7081741 -20.00270202 218.7081741 -20.00975513 217.11055756 C-20.12076573 191.70501189 -20.20292339 166.29949768 -20.25484943 140.89376068 C-20.28062811 128.60771056 -20.31577249 116.32182068 -20.37298584 104.03587341 C-20.42283076 93.32710968 -20.45508203 82.618462 -20.46623105 71.90958548 C-20.47274788 66.23956529 -20.48805781 60.56987713 -20.52443886 54.89996338 C-20.5584152 49.56148896 -20.56883806 44.22348285 -20.56132698 38.88491058 C-20.56270078 36.92737532 -20.57262332 34.96982416 -20.59181595 33.01238251 C-20.61677998 30.33462365 -20.61068203 27.65862118 -20.59706116 24.9808197 C-20.61890747 23.82514362 -20.61890747 23.82514362 -20.64119512 22.64612055 C-20.54804463 15.84792795 -17.68195755 11.16695202 -13.11688232 6.25071716 C-12.56129639 5.80470154 -12.00571045 5.35868591 -11.43328857 4.89915466 C-10.87512451 4.43767029 -10.31696045 3.97618591 -9.74188232 3.50071716 C-6.53374735 1.24712794 -3.94929372 0.02704452 0 0 Z " fill="#0066CA" transform="translate(468.99578857421875,229.72584533691406)"/>
<path d="M0 0 C0 0.33 0 0.66 0 1 C-0.84304688 1.17015625 -1.68609375 1.3403125 -2.5546875 1.515625 C-3.65039062 1.75796875 -4.74609375 2.0003125 -5.875 2.25 C-6.96554687 2.48203125 -8.05609375 2.7140625 -9.1796875 2.953125 C-12.11216492 3.70744983 -12.11216492 3.70744983 -13.21875 6.03125 C-13.4765625 6.6809375 -13.734375 7.330625 -14 8 C-16.625 9.25 -16.625 9.25 -19 10 C-13.56842719 2.96977278 -9.34030265 -0.56041816 0 0 Z " fill="#0752C3" transform="translate(472,230)"/>
</svg>
